<svg xmlns="http://www.w3.org/2000/svg" xmlns:xlink="http://www.w3.org/1999/xlink" width="2000" zoomAndPan="magnify" viewBox="0 0 1500 1499.999933" height="2000" preserveAspectRatio="xMidYMid meet" version="1.0"><defs><filter x="0%" y="0%" width="100%" height="100%" id="179e2738c1"><feColorMatrix values="0 0 0 0 1 0 0 0 0 1 0 0 0 0 1 0 0 0 1 0" color-interpolation-filters="sRGB"/></filter><g/><clipPath id="c7e428f206"><path d="M 35.453125 0.324219 L 1464.203125 0.324219 L 1464.203125 1500 L 35.453125 1500 Z M 35.453125 0.324219 " clip-rule="nonzero"/></clipPath><clipPath id="a8efbfb635"><path d="M 395.375 395.695312 L 1104.625 395.695312 L 1104.625 1104.949219 L 395.375 1104.949219 Z M 395.375 395.695312 " clip-rule="nonzero"/></clipPath><clipPath id="c5a7a12164"><path d="M 750 395.695312 C 554.144531 395.695312 395.375 554.46875 395.375 750.324219 C 395.375 946.175781 554.144531 1104.949219 750 1104.949219 C 945.855469 1104.949219 1104.625 946.175781 1104.625 750.324219 C 1104.625 554.46875 945.855469 395.695312 750 395.695312 Z M 750 395.695312 " clip-rule="nonzero"/></clipPath><clipPath id="fe8ba0a3ca"><path d="M 0.375 0.695312 L 709.625 0.695312 L 709.625 709.949219 L 0.375 709.949219 Z M 0.375 0.695312 " clip-rule="nonzero"/></clipPath><clipPath id="5146c68061"><path d="M 355 0.695312 C 159.144531 0.695312 0.375 159.46875 0.375 355.324219 C 0.375 551.175781 159.144531 709.949219 355 709.949219 C 550.855469 709.949219 709.625 551.175781 709.625 355.324219 C 709.625 159.46875 550.855469 0.695312 355 0.695312 Z M 355 0.695312 " clip-rule="nonzero"/></clipPath><clipPath id="9a3f8606a5"><rect x="0" width="710" y="0" height="710"/></clipPath><clipPath id="3556b351f0"><path d="M 0 0 L 1500 0 L 1500 1500 L 0 1500 Z M 0 0 " clip-rule="nonzero"/></clipPath><linearGradient x1="-365.782701" gradientTransform="matrix(1.344008, 0, 0, 1.344396, 491.615031, 335.176005)" y1="318" x2="750.281713" gradientUnits="userSpaceOnUse" y2="318" id="ac1df90dd5"><stop stop-opacity="1" stop-color="rgb(0%, 0%, 0%)" offset="0"/><stop stop-opacity="1" stop-color="rgb(0%, 0%, 0%)" offset="0.25"/><stop stop-opacity="1" stop-color="rgb(0%, 0%, 0%)" offset="0.3125"/><stop stop-opacity="1" stop-color="rgb(0.0274658%, 0.0274658%, 0.0274658%)" offset="0.328125"/><stop stop-opacity="1" stop-color="rgb(0.62561%, 0.62561%, 0.62561%)" offset="0.332031"/><stop stop-opacity="1" stop-color="rgb(1.196289%, 1.196289%, 1.196289%)" offset="0.335937"/><stop stop-opacity="1" stop-color="rgb(1.766968%, 1.766968%, 1.766968%)" offset="0.339844"/><stop stop-opacity="1" stop-color="rgb(2.337646%, 2.337646%, 2.337646%)" offset="0.34375"/><stop stop-opacity="1" stop-color="rgb(2.906799%, 2.906799%, 2.906799%)" offset="0.347656"/><stop stop-opacity="1" stop-color="rgb(3.477478%, 3.477478%, 3.477478%)" offset="0.351562"/><stop stop-opacity="1" stop-color="rgb(4.048157%, 4.048157%, 4.048157%)" offset="0.355469"/><stop stop-opacity="1" stop-color="rgb(4.618835%, 4.618835%, 4.618835%)" offset="0.359375"/><stop stop-opacity="1" stop-color="rgb(5.189514%, 5.189514%, 5.189514%)" offset="0.363281"/><stop stop-opacity="1" stop-color="rgb(5.760193%, 5.760193%, 5.760193%)" offset="0.367188"/><stop stop-opacity="1" stop-color="rgb(6.330872%, 6.330872%, 6.330872%)" offset="0.371094"/><stop stop-opacity="1" stop-color="rgb(6.90155%, 6.90155%, 6.90155%)" offset="0.375"/><stop stop-opacity="1" stop-color="rgb(7.472229%, 7.472229%, 7.472229%)" offset="0.378906"/><stop stop-opacity="1" stop-color="rgb(8.042908%, 8.042908%, 8.042908%)" offset="0.382812"/><stop stop-opacity="1" stop-color="rgb(8.612061%, 8.612061%, 8.612061%)" offset="0.386719"/><stop stop-opacity="1" stop-color="rgb(9.182739%, 9.182739%, 9.182739%)" offset="0.390625"/><stop stop-opacity="1" stop-color="rgb(9.753418%, 9.753418%, 9.753418%)" offset="0.394531"/><stop stop-opacity="1" stop-color="rgb(10.324097%, 10.324097%, 10.324097%)" offset="0.398438"/><stop stop-opacity="1" stop-color="rgb(10.894775%, 10.894775%, 10.894775%)" offset="0.402344"/><stop stop-opacity="1" stop-color="rgb(11.465454%, 11.465454%, 11.465454%)" offset="0.40625"/><stop stop-opacity="1" stop-color="rgb(12.036133%, 12.036133%, 12.036133%)" offset="0.410156"/><stop stop-opacity="1" stop-color="rgb(12.606812%, 12.606812%, 12.606812%)" offset="0.414062"/><stop stop-opacity="1" stop-color="rgb(13.17749%, 13.17749%, 13.17749%)" offset="0.417969"/><stop stop-opacity="1" stop-color="rgb(13.748169%, 13.748169%, 13.748169%)" offset="0.421875"/><stop stop-opacity="1" stop-color="rgb(14.318848%, 14.318848%, 14.318848%)" offset="0.425781"/><stop stop-opacity="1" stop-color="rgb(14.889526%, 14.889526%, 14.889526%)" offset="0.429688"/><stop stop-opacity="1" stop-color="rgb(15.458679%, 15.458679%, 15.458679%)" offset="0.433594"/><stop stop-opacity="1" stop-color="rgb(16.029358%, 16.029358%, 16.029358%)" offset="0.4375"/><stop stop-opacity="1" stop-color="rgb(16.600037%, 16.600037%, 16.600037%)" offset="0.441406"/><stop stop-opacity="1" stop-color="rgb(17.170715%, 17.170715%, 17.170715%)" offset="0.445312"/><stop stop-opacity="1" stop-color="rgb(17.741394%, 17.741394%, 17.741394%)" offset="0.449219"/><stop stop-opacity="1" stop-color="rgb(18.312073%, 18.312073%, 18.312073%)" offset="0.453125"/><stop stop-opacity="1" stop-color="rgb(18.882751%, 18.882751%, 18.882751%)" offset="0.457031"/><stop stop-opacity="1" stop-color="rgb(19.45343%, 19.45343%, 19.45343%)" offset="0.460937"/><stop stop-opacity="1" stop-color="rgb(20.024109%, 20.024109%, 20.024109%)" offset="0.464844"/><stop stop-opacity="1" stop-color="rgb(20.594788%, 20.594788%, 20.594788%)" offset="0.46875"/><stop stop-opacity="1" stop-color="rgb(21.16394%, 21.16394%, 21.16394%)" offset="0.472656"/><stop stop-opacity="1" stop-color="rgb(21.734619%, 21.734619%, 21.734619%)" offset="0.476562"/><stop stop-opacity="1" stop-color="rgb(22.305298%, 22.305298%, 22.305298%)" offset="0.480469"/><stop stop-opacity="1" stop-color="rgb(22.875977%, 22.875977%, 22.875977%)" offset="0.484375"/><stop stop-opacity="1" stop-color="rgb(23.446655%, 23.446655%, 23.446655%)" offset="0.488281"/><stop stop-opacity="1" stop-color="rgb(24.017334%, 24.017334%, 24.017334%)" offset="0.492188"/><stop stop-opacity="1" stop-color="rgb(24.588013%, 24.588013%, 24.588013%)" offset="0.496094"/><stop stop-opacity="1" stop-color="rgb(25.158691%, 25.158691%, 25.158691%)" offset="0.5"/><stop stop-opacity="1" stop-color="rgb(25.72937%, 25.72937%, 25.72937%)" offset="0.503906"/><stop stop-opacity="1" stop-color="rgb(26.300049%, 26.300049%, 26.300049%)" offset="0.507812"/><stop stop-opacity="1" stop-color="rgb(26.869202%, 26.869202%, 26.869202%)" offset="0.511719"/><stop stop-opacity="1" stop-color="rgb(27.43988%, 27.43988%, 27.43988%)" offset="0.515625"/><stop stop-opacity="1" stop-color="rgb(28.010559%, 28.010559%, 28.010559%)" offset="0.519531"/><stop stop-opacity="1" stop-color="rgb(28.581238%, 28.581238%, 28.581238%)" offset="0.523438"/><stop stop-opacity="1" stop-color="rgb(29.151917%, 29.151917%, 29.151917%)" offset="0.527344"/><stop stop-opacity="1" stop-color="rgb(29.722595%, 29.722595%, 29.722595%)" offset="0.53125"/><stop stop-opacity="1" stop-color="rgb(30.293274%, 30.293274%, 30.293274%)" offset="0.535156"/><stop stop-opacity="1" stop-color="rgb(30.863953%, 30.863953%, 30.863953%)" offset="0.539062"/><stop stop-opacity="1" stop-color="rgb(31.434631%, 31.434631%, 31.434631%)" offset="0.542969"/><stop stop-opacity="1" stop-color="rgb(32.00531%, 32.00531%, 32.00531%)" offset="0.546875"/><stop stop-opacity="1" stop-color="rgb(32.574463%, 32.574463%, 32.574463%)" offset="0.550781"/><stop stop-opacity="1" stop-color="rgb(33.145142%, 33.145142%, 33.145142%)" offset="0.554688"/><stop stop-opacity="1" stop-color="rgb(33.71582%, 33.71582%, 33.71582%)" offset="0.558594"/><stop stop-opacity="1" stop-color="rgb(34.286499%, 34.286499%, 34.286499%)" offset="0.5625"/><stop stop-opacity="1" stop-color="rgb(34.857178%, 34.857178%, 34.857178%)" offset="0.566406"/><stop stop-opacity="1" stop-color="rgb(35.427856%, 35.427856%, 35.427856%)" offset="0.570312"/><stop stop-opacity="1" stop-color="rgb(35.998535%, 35.998535%, 35.998535%)" offset="0.574219"/><stop stop-opacity="1" stop-color="rgb(36.569214%, 36.569214%, 36.569214%)" offset="0.578125"/><stop stop-opacity="1" stop-color="rgb(37.139893%, 37.139893%, 37.139893%)" offset="0.582031"/><stop stop-opacity="1" stop-color="rgb(37.710571%, 37.710571%, 37.710571%)" offset="0.585938"/><stop stop-opacity="1" stop-color="rgb(38.279724%, 38.279724%, 38.279724%)" offset="0.589844"/><stop stop-opacity="1" stop-color="rgb(38.850403%, 38.850403%, 38.850403%)" offset="0.59375"/><stop stop-opacity="1" stop-color="rgb(39.421082%, 39.421082%, 39.421082%)" offset="0.597656"/><stop stop-opacity="1" stop-color="rgb(39.99176%, 39.99176%, 39.99176%)" offset="0.601562"/><stop stop-opacity="1" stop-color="rgb(40.562439%, 40.562439%, 40.562439%)" offset="0.605469"/><stop stop-opacity="1" stop-color="rgb(41.133118%, 41.133118%, 41.133118%)" offset="0.609375"/><stop stop-opacity="1" stop-color="rgb(41.703796%, 41.703796%, 41.703796%)" offset="0.613281"/><stop stop-opacity="1" stop-color="rgb(42.274475%, 42.274475%, 42.274475%)" offset="0.617188"/><stop stop-opacity="1" stop-color="rgb(42.845154%, 42.845154%, 42.845154%)" offset="0.621094"/><stop stop-opacity="1" stop-color="rgb(43.415833%, 43.415833%, 43.415833%)" offset="0.625"/><stop stop-opacity="1" stop-color="rgb(43.984985%, 43.984985%, 43.984985%)" offset="0.628906"/><stop stop-opacity="1" stop-color="rgb(44.555664%, 44.555664%, 44.555664%)" offset="0.632812"/><stop stop-opacity="1" stop-color="rgb(44.827271%, 44.827271%, 44.827271%)" offset="0.636719"/><stop stop-opacity="1" stop-color="rgb(45.098877%, 45.098877%, 45.098877%)" offset="0.640625"/><stop stop-opacity="1" stop-color="rgb(45.098877%, 45.098877%, 45.098877%)" offset="0.65625"/><stop stop-opacity="1" stop-color="rgb(45.098877%, 45.098877%, 45.098877%)" offset="0.6875"/><stop stop-opacity="1" stop-color="rgb(45.098877%, 45.098877%, 45.098877%)" offset="0.75"/><stop stop-opacity="1" stop-color="rgb(45.098877%, 45.098877%, 45.098877%)" offset="1"/></linearGradient><clipPath id="a6e0a34dcc"><rect x="0" width="1500" y="0" height="1500"/></clipPath><clipPath id="5e380faa97"><rect x="0" width="1500" y="0" height="1500"/></clipPath><clipPath id="6eada4c1ab"><rect x="0" width="1500" y="0" height="1500"/></clipPath><mask id="4f1981393b"><g filter="url(#179e2738c1)"><g transform="matrix(1, 0, 0, 1, 0, 0.000000000000112861)"><g clip-path="url(#6eada4c1ab)"><g transform="matrix(1, 0, 0, 1, 0, 0.000000000000112861)"><g clip-path="url(#5e380faa97)"><g fill="#000000" fill-opacity="1"><g transform="translate(491.284671, 943.505566)"><g><path d="M 181.15625 3.671875 C 153.820312 3.671875 129.035156 -2.34375 106.796875 -14.375 C 84.554688 -26.414062 66.910156 -44.164062 53.859375 -67.625 C 40.804688 -91.09375 34.28125 -119.144531 34.28125 -151.78125 C 34.28125 -176.675781 38.5625 -204.421875 47.125 -235.015625 C 65.894531 -300.296875 95.375 -346.398438 135.5625 -373.328125 C 175.75 -400.265625 218.691406 -413.734375 264.390625 -413.734375 C 306.015625 -413.734375 343.554688 -398.632812 377.015625 -368.4375 L 395.375 -386.1875 C 405.570312 -394.757812 414.34375 -400.675781 421.6875 -403.9375 C 429.03125 -407.207031 437.597656 -408.84375 447.390625 -408.84375 C 458.003906 -408.84375 466.570312 -406.289062 473.09375 -401.1875 C 479.625 -396.082031 482.890625 -389.25 482.890625 -380.6875 C 482.890625 -377.414062 482.28125 -373.539062 481.0625 -369.0625 L 459.015625 -291.9375 C 454.941406 -278.882812 450.148438 -269.703125 444.640625 -264.390625 C 439.128906 -259.085938 431.679688 -256.4375 422.296875 -256.4375 C 412.503906 -256.4375 403.832031 -258.882812 396.28125 -263.78125 C 388.738281 -268.675781 380.070312 -277.453125 370.28125 -290.109375 C 357.21875 -307.242188 345.6875 -319.378906 335.6875 -326.515625 C 325.695312 -333.660156 314.785156 -337.234375 302.953125 -337.234375 C 284.585938 -337.234375 267.144531 -327.945312 250.625 -309.375 C 234.101562 -290.8125 219.722656 -259.90625 207.484375 -216.65625 C 199.722656 -188.5 195.84375 -164.222656 195.84375 -143.828125 C 195.84375 -122.203125 200.023438 -105.78125 208.390625 -94.5625 C 216.753906 -83.34375 228.488281 -77.734375 243.59375 -77.734375 C 256.644531 -77.734375 266.738281 -80.789062 273.875 -86.90625 C 281.019531 -93.03125 286.632812 -103.640625 290.71875 -118.734375 L 295 -134.03125 C 297.039062 -142.195312 298.0625 -147.707031 298.0625 -150.5625 C 298.0625 -155.457031 296.9375 -158.925781 294.6875 -160.96875 C 292.445312 -163.007812 288.675781 -165.253906 283.375 -167.703125 L 261.953125 -175.65625 C 252.566406 -179.320312 247.875 -186.050781 247.875 -195.84375 C 247.875 -198.707031 248.078125 -200.953125 248.484375 -202.578125 C 250.117188 -207.878906 253.078125 -211.753906 257.359375 -214.203125 C 261.640625 -216.660156 268.269531 -217.890625 277.25 -217.890625 L 462.078125 -217.265625 C 475.546875 -217.265625 482.28125 -212.984375 482.28125 -204.421875 C 482.28125 -202.785156 481.875 -200.335938 481.0625 -197.078125 C 479.425781 -190.953125 476.769531 -186.050781 473.09375 -182.375 C 469.425781 -178.707031 464.125 -175.039062 457.1875 -171.375 L 441.28125 -162.1875 C 437.195312 -159.738281 434.132812 -157.390625 432.09375 -155.140625 C 430.050781 -152.898438 428.625 -150.148438 427.8125 -146.890625 L 395.375 -33.65625 C 391.289062 -20.195312 386.695312 -11.222656 381.59375 -6.734375 C 376.5 -2.242188 370.28125 0 362.9375 0 L 337.234375 0 C 327.441406 0 319.378906 -2.035156 313.046875 -6.109375 C 306.722656 -10.191406 301.523438 -18.148438 297.453125 -29.984375 L 291.328125 -47.734375 C 261.953125 -13.460938 225.226562 3.671875 181.15625 3.671875 Z M 181.15625 3.671875 "/></g></g></g></g></g></g></g></g></mask><clipPath id="862dcc4c68"><path d="M 0 0 L 1500 0 L 1500 1500 L 0 1500 Z M 0 0 " clip-rule="nonzero"/></clipPath><clipPath id="250eb88c39"><rect x="0" width="1500" y="0" height="1500"/></clipPath><clipPath id="61a64e9803"><rect x="0" width="1500" y="0" height="1500"/></clipPath><clipPath id="8069025553"><rect x="0" width="1500" y="0" height="1500"/></clipPath><clipPath id="80254cf45e"><rect x="0" width="489" y="0" height="894"/></clipPath></defs><g clip-path="url(#c7e428f206)"><path stroke-linecap="butt" transform="matrix(2.802821, 0, 0, 2.803488, -327.194996, -537.980254)" fill="none" stroke-linejoin="miter" d="M 628.569896 459.50978 C 628.594982 463.524032 628.522511 467.53689 628.349694 471.546961 C 628.17827 475.557032 627.907895 479.56153 627.537175 483.559061 C 627.167849 487.556592 626.700964 491.541583 626.133735 495.515427 C 625.567899 499.489271 624.904505 503.447788 624.143553 507.389585 C 623.382601 511.329989 622.524091 515.250885 621.57081 519.149488 C 620.616136 523.049485 619.566691 526.923007 618.421082 530.770056 C 617.275473 534.617105 616.036487 538.4335 614.702731 542.220635 C 613.368975 546.006376 611.943235 549.757284 610.424118 553.473358 C 608.906396 557.189431 607.296689 560.866491 605.597788 564.503144 C 603.897492 568.139796 602.109394 571.731861 600.233494 575.280733 C 598.356201 578.829604 596.393892 582.329708 594.343782 585.781044 C 592.295065 589.232381 590.161334 592.632163 587.945375 595.978998 C 585.728022 599.32444 583.429836 602.615541 581.050815 605.848121 C 578.671795 609.082094 576.214729 612.25476 573.679616 615.366118 C 571.143109 618.47887 568.532738 621.526134 565.847107 624.510697 C 563.161476 627.493867 560.404767 630.408762 557.574193 633.256777 C 554.745013 636.104791 551.847542 638.880351 548.88178 641.58485 C 545.914625 644.289349 542.883361 646.920001 539.787986 649.475411 C 536.692612 652.030821 533.534522 654.508204 530.316504 656.907558 C 527.098485 659.306913 523.823326 661.625453 520.491025 663.864572 C 517.158725 666.102298 513.773464 668.256422 510.335243 670.328339 C 506.895629 672.398862 503.408629 674.384391 499.872851 676.283531 C 496.335679 678.184066 492.755302 679.994032 489.128934 681.71761 C 485.502566 683.439795 481.837175 685.072805 478.131366 686.615247 C 474.424165 688.156296 470.682121 689.606777 466.905235 690.963903 C 463.126955 692.322423 459.318014 693.586195 455.478412 694.755218 C 451.63881 695.925635 447.771335 696.999911 443.878773 697.979438 C 439.986211 698.958966 436.07135 699.840958 432.13419 700.628203 C 428.198424 701.414054 424.24454 702.102371 420.273931 702.694546 C 416.304717 703.285328 412.321565 703.778575 408.327264 704.174288 C 404.33157 704.568607 400.3303 704.865391 396.320669 705.063247 C 392.311038 705.261103 388.298619 705.360031 384.284806 705.360031 C 380.270994 705.360031 376.258575 705.261103 372.248943 705.063247 C 368.240706 704.865391 364.238043 704.568607 360.243742 704.174288 C 356.248047 703.778575 352.266289 703.285328 348.295681 702.694546 C 344.325073 702.102371 340.371189 701.414054 336.435422 700.628203 C 332.498263 699.840958 328.583402 698.958966 324.69084 697.979438 C 320.798278 696.999911 316.932196 695.925635 313.0912 694.755218 C 309.251598 693.586195 305.442658 692.322423 301.664378 690.963903 C 297.887492 689.606777 294.145448 688.156296 290.43964 686.615247 C 286.732438 685.072805 283.067046 683.439795 279.440678 681.71761 C 275.815704 679.994032 272.233934 678.184066 268.698155 676.283531 C 265.160983 674.384391 261.673983 672.398862 258.235763 670.328339 C 254.796148 668.256422 251.410888 666.102298 248.078587 663.864572 C 244.746286 661.625453 241.471127 659.306913 238.253108 656.907558 C 235.03509 654.508204 231.878394 652.030821 228.781626 649.475411 C 225.686252 646.920001 222.654987 644.289349 219.689226 641.58485 C 216.72207 638.880351 213.8246 636.104791 210.995419 633.256777 C 208.166239 630.408762 205.408136 627.493867 202.722506 624.510697 C 200.036875 621.526134 197.426503 618.47887 194.89139 615.366118 C 192.354884 612.25476 189.897817 609.082094 187.518797 605.848121 C 185.139777 602.615541 182.84159 599.32444 180.625631 595.978998 C 178.408279 592.632163 176.275941 589.232381 174.22583 585.781044 C 172.177114 582.329708 170.213412 578.829604 168.337512 575.280733 C 166.460218 571.731861 164.67212 568.139796 162.971825 564.503144 C 161.272923 560.866491 159.663217 557.189431 158.145494 553.473358 C 156.626377 549.757284 155.200638 546.006376 153.866881 542.220635 C 152.534519 538.4335 151.294139 534.617105 150.149924 530.770056 C 149.004315 526.923007 147.953476 523.049485 147.000196 519.149488 C 146.045522 515.250885 145.187012 511.329989 144.42606 507.389585 C 143.665108 503.447788 143.001714 499.489271 142.435878 495.515427 C 141.870042 491.541583 141.401764 487.556592 141.032437 483.559061 C 140.663111 479.56153 140.391342 475.557032 140.219919 471.546961 C 140.047102 467.53689 139.97463 463.524032 139.999717 459.50978 C 139.97463 455.495529 140.047102 451.484064 140.219919 447.4726 C 140.391342 443.462529 140.663111 439.458031 141.032437 435.461893 C 141.401764 431.464362 141.870042 427.477978 142.435878 423.504134 C 143.001714 419.53029 143.665108 415.571772 144.42606 411.631369 C 145.187012 407.689572 146.045522 403.768675 147.000196 399.870072 C 147.953476 395.971469 149.004315 392.097947 150.149924 388.250898 C 151.294139 384.402456 152.534519 380.58606 153.866881 376.800319 C 155.200638 373.013184 156.626377 369.262277 158.145494 365.546203 C 159.663217 361.830129 161.272923 358.154463 162.971825 354.517811 C 164.67212 350.881158 166.460218 347.287699 168.337512 343.740222 C 170.213412 340.19135 172.177114 336.691246 174.22583 333.238517 C 176.275941 329.78718 178.408279 326.388791 180.625631 323.041956 C 182.84159 319.695121 185.139777 316.405413 187.518797 313.17144 C 189.897817 309.93886 192.354884 306.766194 194.89139 303.653443 C 197.426503 300.540691 200.036875 297.493427 202.722506 294.510257 C 205.408136 291.527087 208.166239 288.610799 210.995419 285.762784 C 213.8246 282.916163 216.72207 280.13921 219.689226 277.43471 C 222.654987 274.730211 225.686252 272.100953 228.781626 269.545543 C 231.878394 266.990133 235.03509 264.512751 238.253108 262.113396 C 241.471127 259.712648 244.746286 257.394108 248.078587 255.156382 C 251.410888 252.917263 254.796148 250.763139 258.235763 248.691222 C 261.673983 246.620699 265.160983 244.63517 268.698155 242.736029 C 272.233934 240.836889 275.815704 239.025529 279.440678 237.301951 C 283.067046 235.579766 286.732438 233.946756 290.43964 232.405707 C 294.145448 230.863264 297.887492 229.412784 301.664378 228.055657 C 305.442658 226.698531 309.251598 225.434759 313.0912 224.264343 C 316.932196 223.093926 320.798278 222.01965 324.69084 221.040123 C 328.583402 220.061988 332.498263 219.178602 336.435422 218.392751 C 340.371189 217.605506 344.325073 216.91719 348.295681 216.326408 C 352.266289 215.734233 356.248047 215.240986 360.243742 214.846666 C 364.238043 214.450954 368.240706 214.15417 372.248943 213.956314 C 376.258575 213.758457 380.270994 213.660923 384.284806 213.660923 C 388.298619 213.660923 392.311038 213.758457 396.320669 213.956314 C 400.3303 214.15417 404.33157 214.450954 408.327264 214.846666 C 412.321565 215.240986 416.304717 215.734233 420.273931 216.326408 C 424.24454 216.91719 428.198424 217.605506 432.13419 218.392751 C 436.07135 219.178602 439.986211 220.061988 443.878773 221.040123 C 447.771335 222.01965 451.63881 223.093926 455.478412 224.264343 C 459.318014 225.434759 463.126955 226.698531 466.905235 228.055657 C 470.682121 229.412784 474.424165 230.863264 478.131366 232.405707 C 481.837175 233.946756 485.502566 235.579766 489.128934 237.301951 C 492.753908 239.025529 496.335679 240.836889 499.872851 242.736029 C 503.408629 244.63517 506.895629 246.620699 510.335243 248.691222 C 513.773464 250.763139 517.158725 252.917263 520.491025 255.156382 C 523.823326 257.394108 527.098485 259.712648 530.316504 262.113396 C 533.534522 264.512751 536.692612 266.990133 539.787986 269.545543 C 542.883361 272.100953 545.914625 274.730211 548.88178 277.43471 C 551.847542 280.13921 554.745013 282.916163 557.574193 285.762784 C 560.403374 288.610799 563.161476 291.527087 565.847107 294.510257 C 568.532738 297.493427 571.143109 300.540691 573.679616 303.653443 C 576.214729 306.766194 578.671795 309.93886 581.050815 313.17144 C 583.429836 316.405413 585.728022 319.695121 587.945375 323.041956 C 590.161334 326.388791 592.295065 329.78718 594.343782 333.238517 C 596.393892 336.691246 598.356201 340.19135 600.233494 343.740222 C 602.109394 347.287699 603.897492 350.881158 605.597788 354.517811 C 607.296689 358.154463 608.906396 361.830129 610.424118 365.546203 C 611.943235 369.262277 613.368975 373.013184 614.702731 376.800319 C 616.036487 380.58606 617.275473 384.402456 618.421082 388.250898 C 619.566691 392.097947 620.616136 395.971469 621.57081 399.870072 C 622.524091 403.768675 623.382601 407.689572 624.143553 411.631369 C 624.904505 415.571772 625.567899 419.53029 626.133735 423.504134 C 626.700964 427.477978 627.167849 431.464362 627.537175 435.461893 C 627.907895 439.458031 628.17827 443.462529 628.349694 447.4726 C 628.522511 451.484064 628.594982 455.495529 628.569896 459.50978 Z M 628.569896 459.50978 " stroke="#000000" stroke-width="20" stroke-opacity="1" stroke-miterlimit="4"/><path stroke-linecap="butt" transform="matrix(-2.742552, 0, 0, -2.779799, 1756.663706, 2007.279407)" fill="none" stroke-linejoin="miter" d="M 374.29056 460.929424 C 386.394364 460.500829 380.840971 477.034737 375.004141 481.049472 C 359.185731 491.927338 339.567257 477.769671 334.052321 462.35854 C 324.187535 434.790787 345.760166 407.158392 372.146971 400.573496 C 410.871167 390.908341 447.45747 420.738511 454.765615 458.072596 C 464.50791 507.834513 426.144065 553.628068 377.861311 561.522636 C 317.103007 571.460406 261.990677 524.447113 253.571568 465.212557 C 243.374918 393.472882 299.096854 328.992611 369.281255 320.093305 C 451.995329 309.600471 525.871546 374.0695 535.2307 455.212958 C 546.042653 548.895262 472.807376 632.192934 380.711359 642.002827 C 276.061456 653.149092 183.33162 571.131582 173.090816 468.073601 C 161.600891 352.462721 252.40933 250.292843 366.421236 239.622951 C 493.001272 227.778288 604.621759 327.387841 615.711453 452.363157 C 616.087471 456.601323 616.350969 460.847921 616.50337 465.100139 " stroke="#000000" stroke-width="20.062" stroke-opacity="1" stroke-miterlimit="4"/></g><g clip-path="url(#a8efbfb635)"><g clip-path="url(#c5a7a12164)"><g transform="matrix(1, 0, 0, 1, 395, 395)"><g clip-path="url(#9a3f8606a5)"><g clip-path="url(#fe8ba0a3ca)"><g clip-path="url(#5146c68061)"><path fill="#000000" d="M 0.375 0.695312 L 709.625 0.695312 L 709.625 709.949219 L 0.375 709.949219 Z M 0.375 0.695312 " fill-opacity="1" fill-rule="nonzero"/></g></g></g></g></g></g><g transform="matrix(1, 0, 0, 1, 0, 0.000000000000112861)"><g clip-path="url(#8069025553)"><g transform="matrix(1, 0, 0, 1, 0, 0.000000000000112861)"><g clip-path="url(#61a64e9803)"><g mask="url(#4f1981393b)"><g transform="matrix(1, 0, 0, 1, 0, 0.000000000000112861)"><g clip-path="url(#250eb88c39)"><g clip-path="url(#862dcc4c68)"><rect x="-805.2" fill="url(#ac1df90dd5)" width="3110.4" height="3110.399862" y="-805.199964"/></g></g></g></g></g></g></g></g><g transform="matrix(1, 0, 0, 1, 503, 327)"><g clip-path="url(#80254cf45e)"><g fill="#ffffff" fill-opacity="1"><g transform="translate(0.284678, 628.505565)"><g><path d="M 181.15625 3.671875 C 153.820312 3.671875 129.035156 -2.34375 106.796875 -14.375 C 84.554688 -26.414062 66.910156 -44.164062 53.859375 -67.625 C 40.804688 -91.09375 34.28125 -119.144531 34.28125 -151.78125 C 34.28125 -176.675781 38.5625 -204.421875 47.125 -235.015625 C 65.894531 -300.296875 95.375 -346.398438 135.5625 -373.328125 C 175.75 -400.265625 218.691406 -413.734375 264.390625 -413.734375 C 306.015625 -413.734375 343.554688 -398.632812 377.015625 -368.4375 L 395.375 -386.1875 C 405.570312 -394.757812 414.34375 -400.675781 421.6875 -403.9375 C 429.03125 -407.207031 437.597656 -408.84375 447.390625 -408.84375 C 458.003906 -408.84375 466.570312 -406.289062 473.09375 -401.1875 C 479.625 -396.082031 482.890625 -389.25 482.890625 -380.6875 C 482.890625 -377.414062 482.28125 -373.539062 481.0625 -369.0625 L 459.015625 -291.9375 C 454.941406 -278.882812 450.148438 -269.703125 444.640625 -264.390625 C 439.128906 -259.085938 431.679688 -256.4375 422.296875 -256.4375 C 412.503906 -256.4375 403.832031 -258.882812 396.28125 -263.78125 C 388.738281 -268.675781 380.070312 -277.453125 370.28125 -290.109375 C 357.21875 -307.242188 345.6875 -319.378906 335.6875 -326.515625 C 325.695312 -333.660156 314.785156 -337.234375 302.953125 -337.234375 C 284.585938 -337.234375 267.144531 -327.945312 250.625 -309.375 C 234.101562 -290.8125 219.722656 -259.90625 207.484375 -216.65625 C 199.722656 -188.5 195.84375 -164.222656 195.84375 -143.828125 C 195.84375 -122.203125 200.023438 -105.78125 208.390625 -94.5625 C 216.753906 -83.34375 228.488281 -77.734375 243.59375 -77.734375 C 256.644531 -77.734375 266.738281 -80.789062 273.875 -86.90625 C 281.019531 -93.03125 286.632812 -103.640625 290.71875 -118.734375 L 295 -134.03125 C 297.039062 -142.195312 298.0625 -147.707031 298.0625 -150.5625 C 298.0625 -155.457031 296.9375 -158.925781 294.6875 -160.96875 C 292.445312 -163.007812 288.675781 -165.253906 283.375 -167.703125 L 261.953125 -175.65625 C 252.566406 -179.320312 247.875 -186.050781 247.875 -195.84375 C 247.875 -198.707031 248.078125 -200.953125 248.484375 -202.578125 C 250.117188 -207.878906 253.078125 -211.753906 257.359375 -214.203125 C 261.640625 -216.660156 268.269531 -217.890625 277.25 -217.890625 L 462.078125 -217.265625 C 475.546875 -217.265625 482.28125 -212.984375 482.28125 -204.421875 C 482.28125 -202.785156 481.875 -200.335938 481.0625 -197.078125 C 479.425781 -190.953125 476.769531 -186.050781 473.09375 -182.375 C 469.425781 -178.707031 464.125 -175.039062 457.1875 -171.375 L 441.28125 -162.1875 C 437.195312 -159.738281 434.132812 -157.390625 432.09375 -155.140625 C 430.050781 -152.898438 428.625 -150.148438 427.8125 -146.890625 L 395.375 -33.65625 C 391.289062 -20.195312 386.695312 -11.222656 381.59375 -6.734375 C 376.5 -2.242188 370.28125 0 362.9375 0 L 337.234375 0 C 327.441406 0 319.378906 -2.035156 313.046875 -6.109375 C 306.722656 -10.191406 301.523438 -18.148438 297.453125 -29.984375 L 291.328125 -47.734375 C 261.953125 -13.460938 225.226562 3.671875 181.15625 3.671875 Z M 181.15625 3.671875 "/></g></g></g></g></g></svg>